<svg xmlns="http://www.w3.org/2000/svg" data-name="Layer 1" viewBox="0 0 512 512" x="0px" y="0px"><title>Office Time</title><g data-name="Group"><path data-name="Path" d="M167,244.542v-.671a56.511,56.511,0,0,1-20.521,3.718,59.171,59.171,0,0,1-18.479-3v.064l18.945,12.275Z"></path><path data-name="Path" d="M227,283.87A26.848,26.848,0,0,0,200.179,257h-22.89L155,270.861V308h72Z"></path><path data-name="Compound Path" d="M104,187.519c0,23.888,19.652,44.07,43,44.07s43-20.182,43-44.07V144H142.262C128.92,160,113,163.965,104,164.8Zm55.709-17.95a8,8,0,0,1,8,8,.717.717,0,0,0,1.433,0,8,8,0,0,1,16,0,16.717,16.717,0,0,1-33.433,0A8,8,0,0,1,159.709,169.569Zm-43.582,0a8,8,0,0,1,8,8,.717.717,0,0,0,1.433,0,8,8,0,0,1,16,0,16.717,16.717,0,0,1-33.433,0A8,8,0,0,1,116.127,169.569Z"></path><rect data-name="Path" x="286" y="199" width="132" height="59"></rect><path data-name="Path" d="M201.042,128a26.955,26.955,0,0,0-25.678-19H139.446a9.5,9.5,0,0,0,0,19Z"></path><rect data-name="Path" x="286" y="274" width="132" height="9"></rect><polygon data-name="Path" points="336.224 308 368.291 308 365.831 299 338.684 299 336.224 308"></polygon><rect data-name="Path" x="66" y="369" width="29" height="117"></rect><path data-name="Path" d="M114.567,123.976a43.283,43.283,0,0,0-10.816,24.746,39.732,39.732,0,0,0,20.83-9.446A25.5,25.5,0,0,1,114.567,123.976Z"></path><rect data-name="Path" x="416" y="369" width="29" height="117"></rect><path data-name="Path" d="M68,283.87V308h71V270.747L117.928,257H95.269C80.445,257,68,269.045,68,283.87Z"></path><polygon data-name="Path" points="46 353 58 353 103 353 408 353 453 353 465 353 465 324 46 324 46 353"></polygon><path data-name="Compound Path" d="M400,369H244v38H400Zm-54,26H301a8,8,0,0,1,0-16h45a8,8,0,0,1,0,16Z"></path><path data-name="Compound Path" d="M412.337,87.316A60.837,60.837,0,1,0,351.5,148.154,60.906,60.906,0,0,0,412.337,87.316ZM340,93.059V52.874a8,8,0,0,1,16,0V85h22.29a8,8,0,0,1,0,16H347.673A7.677,7.677,0,0,1,340,93.059Z"></path></g></svg>