<svg id="Слой_1" data-name="Слой 1" xmlns="http://www.w3.org/2000/svg" viewBox="0 0 607 380"><defs><style>.cls-1{fill:#6aff72;}.cls-2{fill:#fff;}.cls-3{stroke:#fff;stroke-miterlimit:10;}</style></defs><title>Монтажная область 2 копия</title><rect width="607" height="380"/><path class="cls-1" d="M102.62,160.35V96.81L54,96.87,29.2,88l107.19.3v8.51H112.2v63.54Z"/><path class="cls-1" d="M148.61,160.35v-72h45v8.51H158.19v19.75h33.05v8.51H158.19v26.76h35.47v8.52Z"/><path class="cls-1" d="M201.37,160.35l24.29-72h11.81l24.29,72.05H251.64l-6.53-20.13H217.58l-6.53,20.13ZM242.45,132l-11.13-34-11.08,34Z"/><path class="cls-1" d="M335.28,160.35H325.7V98.26l-18.78,42.25h-5.8L282.49,98.26v62.09h-9v-72H286.6l18,40.11L322,88.3h13.31Z"/><path class="cls-2" d="M106.17,160.35V96.81l-48.58.06L32.75,88l107.19.3v8.51H115.75v63.54Z"/><path class="cls-2" d="M152.16,160.35v-72h45.05v8.51H161.74v19.75h33v8.51h-33v26.76h35.47v8.52Z"/><path class="cls-2" d="M204.92,160.35l24.29-72H241l24.29,72.05H255.19l-6.53-20.13H221.13l-6.53,20.13ZM246,132l-11.13-34-11.08,34Z"/><path class="cls-2" d="M338.83,160.35h-9.58V98.26l-18.78,42.25h-5.8L286,98.26v62.09h-9v-72h13.07l18,40.11L325.52,88.3h13.31Z"/><path class="cls-1" d="M311.32,259.8H272.57V192.94h8.89v59l18,.38Z"/><path class="cls-1" d="M322.92,259.8V192.94h41.8v7.91H331.81v18.32h30.67v7.9H331.81V251.9h32.91v7.9Z"/><path class="cls-1" d="M407.08,261.1a37.59,37.59,0,0,1-13-2.15A26.42,26.42,0,0,1,384,252.39a29.74,29.74,0,0,1-6.46-11,46.42,46.42,0,0,1-2.25-15.09,43.27,43.27,0,0,1,2.27-14.48,31.07,31.07,0,0,1,6.49-10.93,27.35,27.35,0,0,1,10.06-6.78,34.88,34.88,0,0,1,13.06-2.38,41,41,0,0,1,6.47.5,43.84,43.84,0,0,1,5.93,1.34,46.14,46.14,0,0,1,5,1.87q2.76,1.19,4.47,2l-.53,1.44s-19.72.49-22.41.49a19.19,19.19,0,0,0-15.61,7.27Q384.55,214,384.54,226a39.43,39.43,0,0,0,1.58,11.76,24,24,0,0,0,4.53,8.53,19.09,19.09,0,0,0,6.94,5.28,22.15,22.15,0,0,0,9.13,1.81c2.52,0,22.68-.37,22.68-.37l-.09,2.31c-1.14.5-2.66,1.15-4.56,1.93a47.8,47.8,0,0,1-5.32,1.84,56.22,56.22,0,0,1-5.93,1.48A35.53,35.53,0,0,1,407.08,261.1Z"/><path class="cls-1" d="M437.86,259.8l22.54-66.86h11l22.54,66.86h-9.38l-6.06-18.68H452.9l-6.06,18.68ZM476,233.53,465.65,202l-10.28,31.52Z"/><path class="cls-1" d="M594.45,260.15l-89.63-.35V192.94h8.89v59l55.89.26Z"/><path class="cls-2" d="M314.87,259.8H276.12V192.94H285v59l18,.38Z"/><path class="cls-2" d="M326.47,259.8V192.94h41.8v7.91H335.36v18.32H366v7.9H335.36V251.9h32.91v7.9Z"/><path class="cls-2" d="M410.63,261.1a37.59,37.59,0,0,1-13-2.15,26.34,26.34,0,0,1-10.11-6.56,29.74,29.74,0,0,1-6.46-11,46.42,46.42,0,0,1-2.25-15.09,43.27,43.27,0,0,1,2.27-14.48,31.07,31.07,0,0,1,6.49-10.93,27.35,27.35,0,0,1,10.06-6.78,34.88,34.88,0,0,1,13.06-2.38,41,41,0,0,1,6.47.5,43.84,43.84,0,0,1,5.93,1.34,46.14,46.14,0,0,1,5,1.87q2.76,1.19,4.47,2v10.73h-.76c-1.11-1-2.26-1.92-3.44-2.81a30.15,30.15,0,0,0-5-2.85,31,31,0,0,0-6.19-2.24,30.26,30.26,0,0,0-7.54-.9A19.19,19.19,0,0,0,394,206.68q-5.94,7.27-6,19.36a39.77,39.77,0,0,0,1.57,11.76,24.15,24.15,0,0,0,4.54,8.53,19,19,0,0,0,6.94,5.28,22.15,22.15,0,0,0,9.13,1.81,53.61,53.61,0,0,0,7.5-.53,25.84,25.84,0,0,0,6.29-1.62v-9.2l8.75-8.76,0,22.05c-1.14.5-2.66,1.15-4.56,1.93a47.8,47.8,0,0,1-5.32,1.84,56.22,56.22,0,0,1-5.93,1.48A35.53,35.53,0,0,1,410.63,261.1Z"/><path class="cls-2" d="M441.41,259.8,464,192.94H474.9l22.54,66.86h-9.38L482,241.12H456.45l-6.06,18.68Zm38.12-26.27L469.2,202l-10.28,31.52Z"/><path class="cls-2" d="M598,260.15l-89.63-.35V192.94h8.89v59l55.89.26Z"/><path class="cls-3" d="M15,185.61H443.6"/></svg>