<svg xmlns="http://www.w3.org/2000/svg" data-name="Layer 2" viewBox="0 0 100 100" x="0px" y="0px"><title>Esport and Gaming</title><path d="M39.585,55.70752a1.97987,1.97987,0,0,1-1.97565-1.97559.99994.99994,0,1,0-1.99987,0h-.00006A3.97556,3.97556,0,1,0,39.585,49.75586a1,1,0,0,0,0,2,1.97583,1.97583,0,0,1,0,3.95166Z"></path><path d="M60.415,55.70752a1.97884,1.97884,0,0,1-1.97565-1.97559.99994.99994,0,1,0-1.99988,0h-.00006A3.97556,3.97556,0,1,0,60.415,49.75586a1,1,0,1,0,0,2,1.97583,1.97583,0,0,1,0,3.95166Z"></path><path d="M44.9975,46.60858a1,1,0,0,0-.63257-1.26483h-.00006a15.1202,15.1202,0,0,0-9.559,0,1,1,0,1,0,.63232,1.89746,13.11931,13.11931,0,0,1,8.2945-.00006A1,1,0,0,0,44.9975,46.60858Z"></path><path d="M65.8266,46.60858a1,1,0,0,0-.63257-1.26483H65.194a15.1202,15.1202,0,0,0-9.559,0,1,1,0,0,0,.63232,1.89746,13.11931,13.11931,0,0,1,8.2945-.00006A1,1,0,0,0,65.8266,46.60858Z"></path><path d="M50.49249,69.84448a.99993.99993,0,0,0,1.08777.90369A17.05779,17.05779,0,0,0,59.48145,67.954a1,1,0,0,0-1.10938-1.664,15.0575,15.0575,0,0,1-6.97583,2.46661A1,1,0,0,0,50.49249,69.84448Z"></path><path d="M83.73138,29.30176A9.30558,9.30558,0,0,0,74.42969,20H25.57031a9.30557,9.30557,0,0,0-9.30176,9.30176v7.91241a7.33855,7.33855,0,0,0-2.02343,5.06122v5.26709a1,1,0,0,0,2,0l-.00006-5.26709a5.34427,5.34427,0,0,1,1.70391-3.924l.00751-.00708a5.31542,5.31542,0,0,1,3.6861-1.46649H23.707v2.27045l.00006,7.6798a1,1,0,0,0,2,0v-7.0064a32.89089,32.89089,0,0,1,10.46155-1.45588A57.75418,57.75418,0,0,1,49.76434,40.1012a59.75169,59.75169,0,0,0,14.06684,1.79132A36.4312,36.4312,0,0,0,74.293,40.53717V56.70752A24.29116,24.29116,0,0,1,32.79517,73.855,1,1,0,0,0,31.37866,75.267H31.3786A26.28639,26.28639,0,0,0,76.26776,57.70746h2.08966a7.39756,7.39756,0,0,0,7.3974-7.39789V42.27539a7.33852,7.33852,0,0,0-2.02344-5.06122Zm-62.0888,5.57617a7.32584,7.32584,0,0,0-3.37409.8158v-6.392a7.30564,7.30564,0,0,1,7.30182-7.30182H74.42969a7.30565,7.30565,0,0,1,7.30176,7.30182v6.392a7.32577,7.32577,0,0,0-3.374-.8158H76.29291V31.41455A4.22567,4.22567,0,0,0,72.06445,27.186H27.93555A4.22567,4.22567,0,0,0,23.707,31.41455v3.46338Zm28.593,3.2796a59.74153,59.74153,0,0,0-14.06695-1.79162A36.42529,36.42529,0,0,0,25.707,37.7215v-6.307A2.22536,2.22536,0,0,1,27.93555,29.186h44.1289A2.22535,2.22535,0,0,1,74.293,31.41455V38.437a32.89792,32.89792,0,0,1-10.46179,1.45563A57.76205,57.76205,0,0,1,50.23553,38.15753Zm33.51935,12.152a5.39743,5.39743,0,0,1-5.39746,5.398H76.29291V38.85382l.00006-.0003V36.87787h2.06445a5.31538,5.31538,0,0,1,3.686,1.46649l.0075.00708a5.34425,5.34425,0,0,1,1.70392,3.924Z"></path><path d="M38.09766,72.58539h5.95117a3.97556,3.97556,0,0,0,0-7.95111H38.09766a3.96607,3.96607,0,0,0-3.833,2.97558H24.06934a2.82906,2.82906,0,0,1-2.82526-2.82519V50.75586a.99994.99994,0,0,0-1.99988,0h-.00006V64.78467a4.82522,4.82522,0,0,0,4.8252,4.82513H34.26471A3.96624,3.96624,0,0,0,38.09766,72.58539Zm0-5.95117h5.95117a1.97562,1.97562,0,0,1,0,3.95123H38.09766a1.97562,1.97562,0,1,1,0-3.95123Z"></path></svg>