<svg xmlns:x="http://ns.adobe.com/Extensibility/1.0/" xmlns:i="http://ns.adobe.com/AdobeIllustrator/10.0/" xmlns:graph="http://ns.adobe.com/Graphs/1.0/" xmlns="http://www.w3.org/2000/svg" xmlns:xlink="http://www.w3.org/1999/xlink" version="1.1" x="0px" y="0px" viewBox="0 0 64 64" enable-background="new 0 0 64 64" xml:space="preserve"><metadata><sfw xmlns="http://ns.adobe.com/SaveForWeb/1.0/"><slices></slices><sliceSourceBounds height="16384" width="16389" x="-8165" y="-8160" bottomLeftOrigin="true"></sliceSourceBounds></sfw></metadata><g><path d="M48.447,7.105C48.109,6.937,47.703,6.973,47.4,7.2L41,12V8c0-0.552-0.447-1-1-1H20c-0.552,0-1,0.448-1,1v12   c0,0.552,0.448,1,1,1h8.685l-9.648,34.732c-0.148,0.532,0.164,1.083,0.696,1.231C19.822,56.988,19.912,57,20,57   c0.438,0,0.84-0.29,0.963-0.732L29,27.336V56c0,0.553,0.448,1,1,1s1-0.447,1-1V27.336l8.036,28.932   C39.159,56.71,39.562,57,39.999,57c0.089,0,0.179-0.012,0.269-0.036c0.532-0.148,0.844-0.699,0.696-1.231L31.315,21H40   c0.553,0,1-0.448,1-1v-4l6.4,4.8c0.176,0.132,0.388,0.2,0.6,0.2c0.152,0,0.306-0.035,0.447-0.105C48.786,20.725,49,20.379,49,20V8   C49,7.621,48.786,7.275,48.447,7.105z M39,19H21V9h18V19z M47,18l-5.333-4L47,10V18z"></path></g></svg>