<svg xmlns="http://www.w3.org/2000/svg" xmlns:xlink="http://www.w3.org/1999/xlink" version="1.1" x="0px" y="0px" viewBox="0 0 357.188 236.862" style="enable-background:new 0 0 357.188 236.862;" xml:space="preserve"><g><ellipse transform="matrix(0.1802 -0.9836 0.9836 0.1802 32.8643 111.6107)" cx="83.389" cy="36.09" rx="22.495" ry="22.495"></ellipse><path d="M316.333,34.156c2.213-6.348,8.243-10.923,15.334-10.923c7.679,0,14.116,5.361,15.805,12.535   c0.261-2.188,0.204-4.451-0.214-6.731c-2.238-12.221-13.959-20.312-26.181-18.074c-7.481,1.37-13.409,6.298-16.373,12.716   C310.137,24.952,314.519,28.951,316.333,34.156z"></path><path d="M313.288,80.128c0.54-0.443,1.1-0.952,1.659-1.519h-1.699C313.245,79.115,313.26,79.622,313.288,80.128z"></path><path d="M343.552,220.766c-5.147-18.55-6.784-34.043-6.786-46.358c0-10.03,1.091-17.943,2.303-23.67   c5.83-1.594,11.082-5.767,13.516-15.729c3.641-22.067,2.805-35.254-3.033-55.729c-0.067-0.232-0.154-0.442-0.226-0.67h-10.545   c-0.206,0.93-0.544,1.845-1.032,2.718c-0.508,0.89-1.857,3.159-3.965,5.96c-2.389,3.145-5.752,7.158-10.625,10.393   c-2.275,1.486-4.537,2.538-6.827,3.199c1.491,11.296,2.46,23.839,0.417,35.01c-0.068,0.638-0.121,1.241-0.166,1.826   c-2.24,7.591-4.818,19.967-4.816,36.693c-0.002,14.543,1.95,32.35,7.697,53.044c1.535,5.533,6.562,9.16,12.037,9.16   c1.106,0,2.231-0.148,3.35-0.459C341.503,234.308,345.399,227.418,343.552,220.766z"></path><path d="M332.188,86.084c2.332-3.102,3.688-5.518,3.813-5.733c0.314-0.562,0.546-1.147,0.713-1.741h-19.042   c-0.136,0.155-0.271,0.311-0.411,0.464c-1.334,1.489-2.836,2.839-4.103,3.64c-1.289,0.827-2.176,1.01-2.502,0.994   c-0.221-0.008-0.336-0.014-0.709-0.188c-0.402-0.194-1.198-0.732-2.24-2.009l-0.004,0.002c-0.331-0.404-0.684-0.879-1.059-1.444   c-1.551-2.325-3.359-6.059-5.104-11.437c-1.37-4.2-5.883-6.496-10.084-5.129c-4.204,1.368-6.498,5.883-5.131,10.083   c2.266,6.908,4.748,12.212,7.73,16.368l0.004-0.002c0.665,0.926,1.346,1.815,2.065,2.63c1.973,2.223,4.211,4.029,6.712,5.271   c2.476,1.237,5.196,1.855,7.767,1.855c0.017,0,0.035,0,0.053,0c4.574-0.02,8.382-1.727,11.398-3.696   C326.59,93.001,329.83,89.182,332.188,86.084z"></path><path d="M284.424,74.209c-1.705-5.246,1.17-10.901,6.411-12.607c1.007-0.328,2.048-0.493,3.099-0.493   c4.342,0,8.164,2.776,9.508,6.905c1.263,3.892,2.475,6.658,3.489,8.596h46.257c2.209,0,4-1.791,4-4v-30c0-2.209-1.791-4-4-4h-5.314   c0.016,0.292,0.044,0.58,0.044,0.876c0,8.959-7.291,16.249-16.25,16.249c-7.091,0-13.121-4.575-15.334-10.922   c-2.213,6.348-8.241,10.922-15.333,10.922c-8.959,0-16.25-7.289-16.25-16.25c0-0.295,0.028-0.583,0.044-0.875h-4.46   c-2.209,0-4,1.791-4,4v3.524l-23.074-3.024v29l23.074-3.023v3.523c0,2.209,1.791,4,4,4h4.911   C284.968,75.83,284.695,75.033,284.424,74.209z"></path><path d="M286.75,39.484c0,7.87,6.381,14.25,14.25,14.25c7.87,0,14.25-6.38,14.25-14.25s-6.38-14.25-14.25-14.25   C293.131,25.234,286.75,31.614,286.75,39.484z M301,31.484c4.417,0,8,3.582,8,8s-3.583,8-8,8c-4.418,0-8-3.582-8-8   S296.582,31.484,301,31.484z"></path><path d="M317.417,39.484c0,7.87,6.38,14.25,14.25,14.25c7.869,0,14.25-6.38,14.25-14.25s-6.381-14.25-14.25-14.25   C323.797,25.234,317.417,31.614,317.417,39.484z M331.667,31.484c4.418,0,8,3.582,8,8s-3.582,8-8,8c-4.417,0-8-3.582-8-8   S327.25,31.484,331.667,31.484z"></path><path d="M47.022,189.125c-9.171,13.876-22.579,25.932-45.779,30.006c-0.818,0.143-1.363,0.919-1.22,1.735   c0.126,0.729,0.76,1.243,1.476,1.243c0.086,0,0.173-0.007,0.26-0.022c31.467-5.461,46.105-25.609,55.292-44.766   c-0.245,11.816-2.003,26.327-6.75,43.446c-1.847,6.654,2.05,13.543,8.703,15.388c1.117,0.31,2.242,0.458,3.348,0.458   c5.477,0.001,10.503-3.627,12.038-9.163c5.742-20.693,7.695-38.498,7.695-53.04c0.002-11.057-1.126-20.204-2.536-27.333   c-0.187,0.01-0.371,0.034-0.559,0.034c-2.03,0-3.99-0.611-5.667-1.768c-9.19-6.322-16.059-13.673-20.418-21.846   c-3.686-6.888-5.63-14.619-5.618-22.354c0.081-13.506,5.414-23.573,7.704-27.274l0.101-0.166l0.029-0.047l0.042-0.064   c1.857-2.805,4.975-4.48,8.344-4.48c1.962,0,3.868,0.574,5.511,1.663c4.572,3.02,5.854,9.216,2.848,13.81l-0.006,0.012l-0.07,0.118   c-0.099,0.161-0.258,0.436-0.46,0.812c-0.401,0.739-1.006,1.943-1.639,3.538c-1.099,2.77-2.41,7.113-2.406,12.081   c0.015,4.602,1.081,8.832,3.264,12.93c1.387,2.589,3.186,5.05,5.402,7.418c0.014-7.079,0.724-14.251,1.621-20.976   c0.094-0.702,0.187-1.4,0.284-2.092c4.989,2.358,10.945,4.013,17.805,4.008c0.02,0,0.041,0,0.062,0   c6.118,0.001,12.758-1.342,19.803-4.341l-0.8,2.502l-0.894,2.796l0.84,0.318c-2.584,6.16-10.939,22.6-26.828,28.747   c0.467,0.891,0.799,1.842,0.981,2.822c9.523-3.655,16.436-10.611,21.141-17.133c3.88-5.382,6.297-10.486,7.509-13.373l1.653,0.627   l3.855-8.736l1.368-3.101c1.727-1.036,3.47-2.159,5.233-3.396c3.62-2.534,4.502-7.52,1.969-11.141   c-0.158-0.226-0.325-0.441-0.502-0.645l0.866-1.963l2.486-5.633c1.943-0.832,3.607-2.49,4.456-4.727   c1.567-4.135-0.232-8.649-4.015-10.085c-3.789-1.436-8.127,0.751-9.693,4.885c-0.851,2.237-0.705,4.581,0.197,6.492l-2.049,6.411   l-0.71,2.223c-0.758,0.24-1.492,0.596-2.178,1.076c-10.401,7.254-18.489,9.364-24.752,9.376c-6.31-0.007-11.294-2.187-15.201-4.947   c0.088-0.798,0.133-1.599,0.143-2.398c0.109-8.507-4.071-16.752-11.2-18.173c-8.627-1.719-20.768,3.501-25.1,18.365   c-5.838,20.476-6.674,33.662-3.033,55.729c2.434,9.96,7.684,14.134,13.513,15.728c1.037,4.9,1.982,11.407,2.235,19.461   C54.253,176.491,51.073,182.983,47.022,189.125z"></path><path d="M83.54,130.522c-7.683-5.303-12.129-10.602-14.758-15.508c-2.616-4.915-3.484-9.547-3.495-13.868   c-0.006-5.006,1.255-9.568,2.546-12.818c0.642-1.624,1.281-2.912,1.735-3.75c0.226-0.419,0.404-0.726,0.514-0.906   c0.054-0.091,0.091-0.148,0.107-0.173l0.005-0.011c2.407-3.682,1.393-8.62-2.28-11.049C64.231,70,59.269,71.011,56.83,74.697   v-0.002c-0.395,0.698-7.451,11.151-7.542,26.451c-0.01,6.555,1.42,14.008,5.381,21.408c3.949,7.405,10.358,14.652,19.79,21.143   c1.386,0.956,2.968,1.414,4.532,1.414c2.543,0,5.043-1.209,6.596-3.46C88.094,138.01,87.178,133.029,83.54,130.522z"></path><path d="M239.26,146.899c0.158,0.009,0.315,0.014,0.473,0.014c4.206,0,7.732-3.281,7.98-7.534   c0.401-6.933,0.589-13.301,0.591-19.155c-0.042-30.183-4.863-46.888-11.436-56.932c-3.284-4.986-7.128-8.183-10.679-9.955   c-2.702-1.364-5.149-1.892-6.947-2.064c-0.524-0.112-1.067-0.175-1.626-0.175h-6.632c-1.21,7.788-5.871,35.109-12.686,41.924   c-6.814-6.814-11.476-34.136-12.686-41.924h-6.634c-0.558,0-1.101,0.062-1.625,0.174c-1.8,0.173-4.247,0.7-6.952,2.064   c-5.379,2.667-11.179,8.502-15.236,18.84c-4.106,10.381-6.865,25.389-6.88,48.048c0.003,5.856,0.189,12.224,0.598,19.159   c0.25,4.251,3.774,7.53,7.978,7.53c0.158,0,0.316-0.005,0.477-0.014c4.413-0.259,7.777-4.045,7.519-8.456   c-0.394-6.649-0.57-12.706-0.568-18.219c-0.036-24.218,3.497-37.823,6.965-44.922v22.978v31.22v95   c0,6.828,5.535,12.363,12.363,12.363c6.828,0,12.363-5.535,12.363-12.363v-87.273h4.637v87.273c0,6.828,5.535,12.363,12.363,12.363   s12.364-5.535,12.364-12.363v-95v-31.22V75.347c0.593,1.216,1.191,2.61,1.78,4.237c2.818,7.813,5.189,20.63,5.179,40.64   c0.002,5.516-0.175,11.574-0.563,18.224C231.481,142.858,234.849,146.643,239.26,146.899z"></path><circle cx="198.297" cy="22.5" r="22.5"></circle><polygon points="197.297,56 197.297,55 190.297,51 190.297,60  "></polygon><polygon points="199.297,55 199.297,56 206.297,60 206.297,51  "></polygon><circle cx="198.297" cy="63.5" r="2"></circle><circle cx="198.297" cy="70.5" r="2"></circle><circle cx="198.297" cy="78.5" r="2"></circle></g></svg>