<svg xmlns="http://www.w3.org/2000/svg" xmlns:xlink="http://www.w3.org/1999/xlink" version="1.1" x="0px" y="0px" viewBox="0 0 64 80" style="enable-background:new 0 0 64 64;" xml:space="preserve"><style type="text/css">
	.st0{display:none;}
	.st1{display:inline;}
	.st2{fill:none;stroke:#B3B3B3;stroke-width:0.1;stroke-miterlimit:10;}
</style><g class="st0"><g class="st1"><rect x="2" y="2" class="st2" width="60" height="60"/><line class="st2" x1="32" y1="2" x2="32" y2="62"/><line class="st2" x1="62" y1="32" x2="2" y2="32"/><line class="st2" x1="2" y1="2" x2="62" y2="62"/><rect x="10" y="10" class="st2" width="44" height="44"/><line class="st2" x1="62" y1="2" x2="2" y2="62"/><line class="st2" x1="2" y1="32" x2="32" y2="2"/><line class="st2" x1="32" y1="2" x2="62" y2="32"/><line class="st2" x1="62" y1="32" x2="32" y2="62"/><line class="st2" x1="32" y1="62" x2="2" y2="32"/><circle class="st2" cx="32" cy="32" r="21"/></g></g><circle cx="29" cy="15" r="1"/><circle cx="35" cy="15" r="1"/><path d="M57.8,47.5L55,41.8V34c0-1.7-1.3-3-3-3h-3.3c-0.4-0.3-0.8-0.5-1.2-0.6l-8.8-3.2c-0.7-0.9-0.9-2.1-0.7-3.7  c1.3-1.5,2.1-3.4,2.1-5.4v-4.4l0.5-1.6c0.3-0.9,0.4-1.9,0.1-2.9S39.8,7.3,39,7c0.2,0.2-0.3-1.8-1-2.7C36.6,2.7,34.3,2,32,2  c-5,0-9,4-9,9v2c0.3,0,0.7-0.1,1-0.1v5.2c0,2,0.7,3.9,2.1,5.4c0.2,1.6,0,2.8-0.7,3.7l-8.8,3.2c-0.4,0.2-0.8,0.4-1.2,0.6H12  c-1.7,0-3,1.3-3,3v7.8l-2.8,5.7c-0.7,1.3-0.7,2.9-0.1,4.2c0.5,1.1,1.3,1.9,2.3,2.4C8.1,54.5,8,55,8,55.5c0,1,0.4,1.8,1,2.2V59  c0,1.7,1.3,3,3,3h40c1.7,0,3-1.3,3-3v-1.3c0.2-0.2,0.4-0.4,0.6-0.6c0.3-0.4,0.4-1,0.4-1.5s-0.1-1-0.3-1.4c1-0.5,1.8-1.4,2.3-2.4  C58.6,50.3,58.5,48.8,57.8,47.5z M9,52.2c-0.5-0.3-0.9-0.8-1.1-1.3c-0.4-0.8-0.4-1.8,0-2.6L9,46.2V52.2z M38.5,29.2l4.8,1.8h-5.7  L38.5,29.2z M25.9,18.1v-5.4c4.3-0.4,8.2-0.9,11.1-1.7c0.3,0.9,0.6,1.6,1,2v5.1c0,1.6-0.6,3.1-1.8,4.2l-2.1,2.1  c-0.4,0.4-0.9,0.6-1.4,0.6h-1.5c-0.5,0-1-0.2-1.4-0.6l-2.1-2.1C26.6,21.2,25.9,19.7,25.9,18.1z M36.6,28.1L35.4,31h-6.8l-1.5-2.9  c0.5-0.8,0.8-1.6,0.9-2.6l0.3,0.3c0.8,0.8,1.8,1.2,2.8,1.2h1.5c1.1,0,2.1-0.4,2.8-1.2l0.3-0.3C35.8,26.5,36.1,27.3,36.6,28.1z   M25.5,29.2l0.9,1.8h-5.7L25.5,29.2z M11,34c0-0.6,0.4-1,1-1h40c0.6,0,1,0.4,1,1v19H11V34z M53,59c0,0.6-0.4,1-1,1H12  c-0.6,0-1-0.4-1-1v-1h42V59z M53.9,56H10.1c-0.1-0.2-0.1-0.8,0-1h43.8C54,55.2,54,55.8,53.9,56z M56.1,50.9c-0.2,0.6-0.6,1-1.1,1.3  v-6l1.1,2.1C56.5,49.1,56.5,50.1,56.1,50.9z"/><rect x="29" y="40" transform="matrix(-0.7071 -0.7071 0.7071 -0.7071 24.2211 96.0325)" width="6" height="6"/><text x="0" y="79" fill="#000000" font-size="5px" font-weight="bold" font-family="'Helvetica Neue', Helvetica, Arial-Unicode, Arial, Sans-serif">Created by I Putu Kharismayadi</text><text x="0" y="84" fill="#000000" font-size="5px" font-weight="bold" font-family="'Helvetica Neue', Helvetica, Arial-Unicode, Arial, Sans-serif">from the Noun Project</text></svg>