<svg xmlns="http://www.w3.org/2000/svg" viewBox="0 0 64 80" x="0px" y="0px"><g><path d="M59,2H5A3,3,0,0,0,2,5V47a3,3,0,0,0,3,3H26.72l-1.5,6H9a3,3,0,0,0,0,6H55a3,3,0,0,0,0-6H38.78l-1.5-6H59a3,3,0,0,0,3-3V5A3,3,0,0,0,59,2ZM5,4H59a1,1,0,0,1,1,1V43H4V5A1,1,0,0,1,5,4ZM56,59a1,1,0,0,1-1,1H9a1,1,0,0,1,0-2H55A1,1,0,0,1,56,59ZM36.719,56H27.281l1.5-6h6.438ZM60,47a1,1,0,0,1-1,1H5a1,1,0,0,1-1-1V45H60Z"/><path d="M7,12a1,1,0,0,0,1-1V8h3a1,1,0,0,0,0-2H7A1,1,0,0,0,6,7v4A1,1,0,0,0,7,12Z"/><path d="M52,40a1,1,0,0,0,1,1h4a1,1,0,0,0,1-1V36a1,1,0,0,0-2,0v3H53A1,1,0,0,0,52,40Z"/><path d="M40.618,36.923A.991.991,0,0,0,41,37H53a1,1,0,0,0,1-1V24a1,1,0,0,0-1-1H41a1,1,0,0,0-1,1V36a1,1,0,0,0,.618.923ZM43.414,35,52,26.414V35Zm7.172-10L42,33.586V25Z"/><rect x="40" y="11" width="2" height="2"/><rect x="40" y="15" width="2" height="2"/><rect x="40" y="19" width="2" height="2"/><rect x="44" y="11" width="6" height="2"/><rect x="44" y="15" width="6" height="2"/><rect x="30" y="23" width="6" height="2"/><rect x="30" y="27" width="6" height="2"/><rect x="30" y="31" width="6" height="2"/><rect x="30" y="35" width="6" height="2"/><rect x="44" y="19" width="6" height="2"/><path d="M11,11a1,1,0,0,0-1,1v8a1.912,1.912,0,0,0,.052.316c0,.014.057.111.077.149a1.035,1.035,0,0,0,.13.193,1.054,1.054,0,0,0,.09.087.949.949,0,0,0,.2.132,1.009,1.009,0,0,0,.1.052A.977.977,0,0,0,11,21H35a1,1,0,0,0,1-1V12a1.912,1.912,0,0,0-.052-.316c0-.013-.085-.159-.125-.22a1.939,1.939,0,0,0-.241-.256,1.922,1.922,0,0,0-.325-.156C35.184,11.032,35.013,11,35,11Zm1,2H28.839L12,18.613Zm5.161,6L34,13.387V19Z"/><path d="M17,23H11a1,1,0,0,0-1,1v4a1,1,0,0,0,1,1h6a1,1,0,0,0,1-1V24A1,1,0,0,0,17,23Zm-1,4H12V25h4Z"/><path d="M27,23H21a1,1,0,0,0-1,1v4a1,1,0,0,0,1,1h6a1,1,0,0,0,1-1V24A1,1,0,0,0,27,23Zm-1,4H22V25h4Z"/><path d="M17,31H11a1,1,0,0,0-1,1v4a1,1,0,0,0,1,1h6a1,1,0,0,0,1-1V32A1,1,0,0,0,17,31Zm-1,4H12V33h4Z"/><path d="M27,31H21a1,1,0,0,0-1,1v4a1,1,0,0,0,1,1h6a1,1,0,0,0,1-1V32A1,1,0,0,0,27,31Zm-1,4H22V33h4Z"/></g><text x="0" y="79" fill="#000000" font-size="5px" font-weight="bold" font-family="'Helvetica Neue', Helvetica, Arial-Unicode, Arial, Sans-serif">Created by Smalllike</text><text x="0" y="84" fill="#000000" font-size="5px" font-weight="bold" font-family="'Helvetica Neue', Helvetica, Arial-Unicode, Arial, Sans-serif">from the Noun Project</text></svg>