<svg xmlns="http://www.w3.org/2000/svg" viewBox="0 0 64 80" x="0px" y="0px"><g><path d="M32,12a4,4,0,1,0-4-4A4.00427,4.00427,0,0,0,32,12Zm0-7a3.00009,3.00009,0,0,1,2.59814,4.5.99974.99974,0,1,1-1.73144-1A1.00092,1.00092,0,0,0,32,7a1,1,0,0,1,0-2Z"/><rect x="11" y="38" width="8" height="2"/><rect x="11" y="34" width="8" height="2"/><path d="M45,40h8V34H45Zm4-5a2,2,0,1,1-2,2A2.00229,2.00229,0,0,1,49,35Z"/><polygon points="29.618 28 34.382 28 33.382 26 30.618 26 29.618 28"/><polygon points="29.181 14 30.847 24 33.153 24 34.819 14 29.181 14"/><polygon points="21 38 43 38 43 36 33 36 33 30 31 30 31 36 21 36 21 38"/><rect x="4" y="58" width="8" height="2"/><polygon points="57 52 57 46 50 46 50 42 48 42 48 46 41 46 41 52 43 52 43 48 55 48 55 52 57 52"/><polygon points="46 60 46 55.081 39.851 60 46 60"/><polygon points="38 54 38 58.919 44.149 54 38 54"/><path d="M52,54v6h8V54Zm4,5a2,2,0,1,1,2-2A2.00229,2.00229,0,0,1,56,59Z"/><rect x="4" y="54" width="8" height="2"/><rect x="23" y="54" width="3" height="6"/><polygon points="23 52 23 46 16 46 16 42 14 42 14 46 7 46 7 52 9 52 9 48 21 48 21 52 23 52"/><rect x="18" y="54" width="3" height="6"/><path d="M41,10a3.00879,3.00879,0,0,1,3,3,1,1,0,0,0,2,0,3.00879,3.00879,0,0,1,3-3,1,1,0,0,0,0-2,3.00883,3.00883,0,0,1-3-3,1,1,0,0,0-2,0,3.00883,3.00883,0,0,1-3,3,1,1,0,0,0,0,2Z"/><path d="M17,14a3.00879,3.00879,0,0,1,3,3,1,1,0,0,0,2,0,3.00879,3.00879,0,0,1,3-3,1,1,0,0,0,0-2,3.00883,3.00883,0,0,1-3-3,1,1,0,0,0-2,0,3.00883,3.00883,0,0,1-3,3,1,1,0,0,0,0,2Z"/></g><text x="0" y="79" fill="#000000" font-size="5px" font-weight="bold" font-family="'Helvetica Neue', Helvetica, Arial-Unicode, Arial, Sans-serif">Created by Smalllike</text><text x="0" y="84" fill="#000000" font-size="5px" font-weight="bold" font-family="'Helvetica Neue', Helvetica, Arial-Unicode, Arial, Sans-serif">from the Noun Project</text></svg>